<svg xmlns="http://www.w3.org/2000/svg" xmlns:xlink="http://www.w3.org/1999/xlink" viewBox="0 0 962 468.063">
  <defs>
    <style>
      .cls-1 {
        fill: #aaa;
      }

      .cls-2 {
        fill: #dad9da;
      }

      .cls-3 {
        fill: #f7f7f7;
      }

      .cls-4 {
        fill: url(#linear-gradient);
      }

      .cls-5 {
        fill: url(#linear-gradient-2);
      }

      .cls-6 {
        fill: url(#linear-gradient-3);
      }

      .cls-7 {
        fill: #747474;
      }

      .cls-8 {
        fill: url(#linear-gradient-4);
      }

      .cls-9 {
        fill: url(#linear-gradient-5);
      }

      .cls-10 {
        fill: #737373;
      }

      .cls-11 {
        fill: gray;
      }

      .cls-12 {
        fill: #5f5f5f;
        font-size: 9.5px;
      }

      .cls-12, .cls-24, .cls-32, .cls-35, .cls-36, .cls-38, .cls-42, .cls-43, .cls-50 {
        font-family: OpenSans, Open Sans;
      }

      .cls-13 {
        fill: #bfbfbf;
      }

      .cls-14 {
        fill: #27c940;
        stroke: #13ad2d;
      }

      .cls-15 {
        fill: #ffbd2e;
        stroke: #e0a218;
      }

      .cls-16 {
        fill: #ff5f57;
        stroke: #e14842;
      }

      .cls-17 {
        fill: #f9fbff;
      }

      .cls-18 {
        fill: #4267b2;
        opacity: 0.747;
      }

      .cls-19, .cls-26, .cls-31, .cls-39 {
        fill: #fff;
      }

      .cls-20 {
        fill: #fcfcfc;
        stroke-width: 0.5px;
      }

      .cls-20, .cls-31 {
        stroke: #b7b7b7;
      }

      .cls-21 {
        fill: #fafafa;
        stroke: #d1d1d1;
        stroke-width: 0.2px;
      }

      .cls-22, .cls-47, .cls-51 {
        fill: none;
      }

      .cls-23 {
        fill: rgba(0,0,0,0.54);
      }

      .cls-24, .cls-25, .cls-32, .cls-48, .cls-49 {
        fill: rgba(0,0,0,0.87);
      }

      .cls-24, .cls-48 {
        font-size: 13px;
      }

      .cls-25, .cls-44, .cls-50 {
        font-size: 12px;
      }

      .cls-25, .cls-40, .cls-44, .cls-46, .cls-48 {
        font-family: OpenSans-SemiBold, Open Sans;
        font-weight: 600;
      }

      .cls-26 {
        stroke: #455a64;
      }

      .cls-27 {
        fill: rgba(69,90,100,0.87);
      }

      .cls-27, .cls-36, .cls-38, .cls-43 {
        font-size: 9px;
      }

      .cls-27, .cls-33, .cls-49 {
        font-family: OpenSans-Bold, Open Sans;
        font-weight: 700;
      }

      .cls-28 {
        fill: #4e7ad3;
        stroke: #efefef;
      }

      .cls-29, .cls-30 {
        fill: #e8ebed;
      }

      .cls-29 {
        stroke: #fff;
      }

      .cls-31 {
        stroke-width: 0.3px;
      }

      .cls-32, .cls-46 {
        font-size: 11px;
      }

      .cls-33, .cls-35 {
        fill: #272727;
        font-size: 10px;
      }

      .cls-33, .cls-35, .cls-36, .cls-38, .cls-40, .cls-42, .cls-43, .cls-44, .cls-46 {
        stroke: rgba(55,71,79,0);
        stroke-width: 2px;
      }

      .cls-34 {
        fill: #f4f4f4;
        stroke: #eaeaea;
      }

      .cls-36 {
        fill: #3c4346;
      }

      .cls-37 {
        fill: #4e71b9;
      }

      .cls-38, .cls-42 {
        fill: #efefef;
      }

      .cls-39 {
        stroke: #37474f;
        stroke-width: 0.6px;
      }

      .cls-40 {
        fill: #37474f;
        opacity: 0.91;
      }

      .cls-40, .cls-42 {
        font-size: 8px;
      }

      .cls-41 {
        fill: #a5a5a5;
        fill-rule: evenodd;
      }

      .cls-43 {
        fill: #4e5558;
      }

      .cls-44, .cls-46 {
        fill: rgba(255,255,255,0.87);
      }

      .cls-45 {
        fill: #f0f0f0;
      }

      .cls-47 {
        stroke: #d5d5d5;
      }

      .cls-49 {
        font-size: 14px;
      }

      .cls-50 {
        font-weight: 400;
      }

      .cls-51 {
        stroke: #4267b2;
        stroke-width: 5px;
      }

      .cls-52 {
        stroke: none;
      }

      .cls-53 {
        filter: url(#Rectangle_47);
      }

      .cls-54 {
        filter: url(#Rectangle_32-2);
      }

      .cls-55 {
        filter: url(#Rectangle_32);
      }

      .cls-56 {
        filter: url(#Rectangle_42);
      }

      .cls-57 {
        filter: url(#Rectangle_5);
      }

      .cls-58 {
        filter: url(#Rectangle_46);
      }

      .cls-59 {
        filter: url(#Rectangle_48);
      }
    </style>
    <linearGradient id="linear-gradient" x1="0.5" x2="0.5" y2="1" gradientUnits="objectBoundingBox">
      <stop offset="0" stop-color="#ececec"/>
      <stop offset="1" stop-color="#d8d9d8"/>
    </linearGradient>
    <linearGradient id="linear-gradient-2" x1="0.5" x2="0.5" y2="1" gradientUnits="objectBoundingBox">
      <stop offset="0" stop-color="#b3b3b3"/>
      <stop offset="1" stop-color="#a5a5a5"/>
    </linearGradient>
    <linearGradient id="linear-gradient-3" x1="0.5" y1="1" x2="0.5" gradientUnits="objectBoundingBox">
      <stop offset="0" stop-color="#bfbfbf"/>
      <stop offset="1" stop-color="#ccc"/>
    </linearGradient>
    <linearGradient id="linear-gradient-4" x1="0.5" y1="0.75" x2="0.5" y2="1" gradientUnits="objectBoundingBox">
      <stop offset="0" stop-color="#dadada"/>
      <stop offset="1" stop-color="#babbba"/>
    </linearGradient>
    <linearGradient id="linear-gradient-5" x1="0.5" x2="0.5" y2="1" gradientUnits="objectBoundingBox">
      <stop offset="0" stop-color="#fff"/>
      <stop offset="1" stop-color="#f3f2f2"/>
    </linearGradient>
    <filter id="Rectangle_48" x="93" y="15.063" width="675" height="47" filterUnits="userSpaceOnUse">
      <feOffset dy="3" input="SourceAlpha"/>
      <feGaussianBlur stdDeviation="3" result="blur"/>
      <feFlood flood-opacity="0.161"/>
      <feComposite operator="in" in2="blur"/>
      <feComposite in="SourceGraphic"/>
    </filter>
    <filter id="Rectangle_46" x="0" y="107.063" width="722" height="361" filterUnits="userSpaceOnUse">
      <feOffset input="SourceAlpha"/>
      <feGaussianBlur stdDeviation="15" result="blur-2"/>
      <feFlood flood-opacity="0.161"/>
      <feComposite operator="in" in2="blur-2"/>
      <feComposite in="SourceGraphic"/>
    </filter>
    <filter id="Rectangle_5" x="40.5" y="148.563" width="641" height="280" filterUnits="userSpaceOnUse">
      <feOffset dy="1" input="SourceAlpha"/>
      <feGaussianBlur stdDeviation="1.5" result="blur-3"/>
      <feFlood flood-opacity="0.161"/>
      <feComposite operator="in" in2="blur-3"/>
      <feComposite in="SourceGraphic"/>
    </filter>
    <filter id="Rectangle_42" x="85" y="17.063" width="692" height="158" filterUnits="userSpaceOnUse">
      <feOffset dy="1" input="SourceAlpha"/>
      <feGaussianBlur stdDeviation="10" result="blur-4"/>
      <feFlood flood-opacity="0.161"/>
      <feComposite operator="in" in2="blur-4"/>
      <feComposite in="SourceGraphic"/>
    </filter>
    <filter id="Rectangle_32" x="348.5" y="70.563" width="117" height="31" filterUnits="userSpaceOnUse">
      <feOffset dy="1" input="SourceAlpha"/>
      <feGaussianBlur stdDeviation="1.5" result="blur-5"/>
      <feFlood flood-opacity="0.161"/>
      <feComposite operator="in" in2="blur-5"/>
      <feComposite in="SourceGraphic"/>
    </filter>
    <filter id="Rectangle_32-2" x="684.5" y="70.563" width="49.907" height="31" filterUnits="userSpaceOnUse">
      <feOffset dy="1" input="SourceAlpha"/>
      <feGaussianBlur stdDeviation="1.5" result="blur-6"/>
      <feFlood flood-opacity="0.161"/>
      <feComposite operator="in" in2="blur-6"/>
      <feComposite in="SourceGraphic"/>
    </filter>
    <filter id="Rectangle_47" x="656" y="134.063" width="306" height="148" filterUnits="userSpaceOnUse">
      <feOffset dy="3" input="SourceAlpha"/>
      <feGaussianBlur stdDeviation="10" result="blur-7"/>
      <feFlood flood-opacity="0.161"/>
      <feComposite operator="in" in2="blur-7"/>
      <feComposite in="SourceGraphic"/>
    </filter>
  </defs>
  <g id="Group_19" data-name="Group 19" transform="translate(-2882 -549.937)">
    <g id="Safari_1280x720" data-name="Safari 1280x720" transform="translate(3379 694.937)">
      <g id="head" transform="translate(-395 -145)">
        <g id="bg">
          <rect id="line" class="cls-1" width="657" height="0.546" transform="translate(0 20.73)"/>
          <path id="fill-three" class="cls-2" d="M6,0H651a6,6,0,0,1,6,6V20.73a0,0,0,0,1,0,0H0a0,0,0,0,1,0,0V6A6,6,0,0,1,6,0Z"/>
          <path id="fill-two" class="cls-3" d="M6,0H651a6,6,0,0,1,6,6V20.185a0,0,0,0,1,0,0H0a0,0,0,0,1,0,0V6A6,6,0,0,1,6,0Z" transform="translate(0 0.546)"/>
          <path id="fill-one" class="cls-4" d="M6,0H651a6,6,0,0,1,6,6V19.639a0,0,0,0,1,0,0H0a0,0,0,0,1,0,0V6A6,6,0,0,1,6,0Z" transform="translate(0 1.091)"/>
        </g>
        <g id="add-tab" transform="translate(644.681 8.183)">
          <g id="bg-2" data-name="bg">
            <rect id="border" class="cls-5" width="12.319" height="12.547"/>
            <rect id="fill" class="cls-6" width="11.805" height="12.002" transform="translate(0.513 0.546)"/>
          </g>
          <path id="icon-plus" class="cls-7" d="M3570.566,6V3.273H3568V2.728h2.567V0h.513V2.728h2.566v.545h-2.566V6Z" transform="translate(-3564.407 3.819)"/>
        </g>
        <g id="button-tabs" transform="translate(620.044 4.364)">
          <g id="bg-3" data-name="bg" transform="translate(0)">
            <rect id="border-2" data-name="border" class="cls-8" width="20.531" height="13.093" rx="4"/>
            <rect id="fill-2" data-name="fill" class="cls-9" width="19.505" height="12.002" rx="3" transform="translate(0.513 0.546)"/>
          </g>
          <path id="icon-tabs" class="cls-10" d="M0,2.182V6a.5.5,0,0,0,.513.546H4.106A.5.5,0,0,0,4.62,6V2.182a.5.5,0,0,0-.513-.546H.513A.5.5,0,0,0,0,2.182ZM3.85,6H.77a.25.25,0,0,1-.257-.273V2.455A.25.25,0,0,1,.77,2.182H3.85a.25.25,0,0,1,.257.273V5.728A.25.25,0,0,1,3.85,6ZM6.159.546V4.364a.5.5,0,0,1-.513.546H5.133V4.364h.257a.25.25,0,0,0,.257-.273V.818A.25.25,0,0,0,5.389.546H2.31a.25.25,0,0,0-.257.273v.273H1.54V.546A.5.5,0,0,1,2.053,0H5.646A.5.5,0,0,1,6.159.546Z" transform="translate(7.186 3.273)"/>
        </g>
        <g id="button-share" transform="translate(596.433 4.364)">
          <g id="bg-4" data-name="bg" transform="translate(0)">
            <rect id="border-3" data-name="border" class="cls-8" width="20.531" height="13.093" rx="4"/>
            <rect id="fill-3" data-name="fill" class="cls-9" width="19.505" height="12.002" rx="3" transform="translate(0.513 0.546)"/>
          </g>
          <path id="icon-share" class="cls-10" d="M5.646,3.11V7.474a.5.5,0,0,1-.513.546H.513A.5.5,0,0,1,0,7.474V3.11a.5.5,0,0,1,.513-.546h1.54V3.11H.77a.25.25,0,0,0-.257.273V7.2a.25.25,0,0,0,.257.273H4.876A.25.25,0,0,0,5.133,7.2V3.382a.25.25,0,0,0-.257-.273H3.593V2.564h1.54A.5.5,0,0,1,5.646,3.11ZM2.566.927v4.31H3.08V.927l1.129.982.308-.436L2.823,0,1.129,1.528l.308.436Z" transform="translate(7.699 2.182)"/>
        </g>
        <g id="button-downloads" transform="translate(572.822 4.364)">
          <g id="bg-5" data-name="bg" transform="translate(0)">
            <rect id="border-4" data-name="border" class="cls-8" width="20.531" height="13.093" rx="4"/>
            <rect id="fill-4" data-name="fill" class="cls-9" width="19.505" height="12.002" rx="3" transform="translate(0.513 0.546)"/>
          </g>
          <path id="icon-downloads" class="cls-10" d="M3.593,0A3.757,3.757,0,0,0,0,3.819,3.757,3.757,0,0,0,3.593,7.638,3.757,3.757,0,0,0,7.186,3.819,3.757,3.757,0,0,0,3.593,0Zm0,6L1.54,3.819H3.08V1.637H4.106V3.819h1.54Z" transform="translate(6.673 2.728)"/>
        </g>
        <g id="input" transform="translate(194.02 3.638)">
          <g id="bg-6" data-name="bg" transform="translate(0 0.727)">
            <rect id="border-5" data-name="border" class="cls-8" width="268.959" height="13.093" rx="4"/>
            <rect id="fill-5" data-name="fill" class="cls-9" width="267.933" height="12.002" rx="3" transform="translate(0.513 0.546)"/>
          </g>
          <path id="icon-refresh" class="cls-11" d="M5.646,3.819v.273a2.942,2.942,0,0,1-2.823,3A2.942,2.942,0,0,1,0,4.092a2.956,2.956,0,0,1,2.566-3V0L4.62,1.364,2.566,2.728V1.691a2.374,2.374,0,0,0-2.053,2.4,2.376,2.376,0,0,0,2.31,2.455,2.376,2.376,0,0,0,2.31-2.455V3.819Z" transform="translate(259.72 3.454)"/>
          <text id="panel.iobio.io" class="cls-12" transform="translate(15.398)"><tspan x="89.097" y="10">panel.iobio.io</tspan></text>
        </g>
        <g id="button-sidemenu" transform="translate(69.806 4.364)">
          <g id="bg-7" data-name="bg">
            <rect id="border-6" data-name="border" class="cls-8" width="20.531" height="13.093" rx="4"/>
            <rect id="fill-6" data-name="fill" class="cls-9" width="19.505" height="12.002" rx="3" transform="translate(0.513 0.546)"/>
          </g>
          <path id="icon-sidemenu" class="cls-10" d="M7.186,0H.513A.5.5,0,0,0,0,.546V6a.5.5,0,0,0,.513.546H7.186A.5.5,0,0,0,7.7,6V.546A.5.5,0,0,0,7.186,0ZM.77,6a.25.25,0,0,1-.257-.273V.818A.25.25,0,0,1,.77.546h1.8V6Zm6.416-.273A.25.25,0,0,1,6.929,6H3.08V.546h3.85a.25.25,0,0,1,.257.273ZM1.027,1.091H2.053v.546H1.027Zm0,1.091H2.053v.546H1.027Zm0,1.091H2.053v.546H1.027Z" transform="translate(6.673 3.273)"/>
        </g>
        <g id="button-forward" transform="translate(52.355 4.364)">
          <g id="bg-8" data-name="bg" transform="translate(0)">
            <rect id="border-7" data-name="border" class="cls-8" width="13.345" height="13.093" rx="4"/>
            <rect id="fill-7" data-name="fill" class="cls-9" width="12.319" height="12.002" rx="3" transform="translate(0.513 0.546)"/>
          </g>
          <path id="icon-back" class="cls-13" d="M3.182,6.336a.38.38,0,0,1-.257-.109L.1,3.5A.479.479,0,0,1,0,3.172a.609.609,0,0,1,.1-.327L2.926.117A.353.353,0,0,1,3.49.171a.446.446,0,0,1,0,.6L.975,3.172l2.515,2.4a.521.521,0,0,1,.051.6A.454.454,0,0,1,3.182,6.336Z" transform="translate(8.726 9.711) rotate(180)"/>
        </g>
        <g id="button-back" transform="translate(39.523 4.364)">
          <g id="bg-9" data-name="bg" transform="translate(0)">
            <rect id="border-8" data-name="border" class="cls-8" width="13.345" height="13.093" rx="4"/>
            <rect id="fill-8" data-name="fill" class="cls-9" width="12.319" height="12.002" rx="3" transform="translate(0.513 0.546)"/>
          </g>
          <path id="icon-back-2" data-name="icon-back" class="cls-11" d="M3.182,6.222a.38.38,0,0,1-.257-.109L.1,3.385A.479.479,0,0,1,0,3.058a.609.609,0,0,1,.1-.327L2.926,0A.353.353,0,0,1,3.49.057a.446.446,0,0,1,0,.6L.975,3.058l2.515,2.4a.521.521,0,0,1,.051.6A.454.454,0,0,1,3.182,6.222Z" transform="translate(4.62 3.496)"/>
        </g>
        <g id="button-round" transform="translate(6.673 7.638)">
          <g id="maximize" class="cls-14" transform="translate(20.531)">
            <circle class="cls-52" cx="2.832" cy="2.832" r="2.832"/>
            <circle class="cls-22" cx="2.832" cy="2.832" r="2.332"/>
          </g>
          <g id="down" class="cls-15" transform="translate(10.266)">
            <circle class="cls-52" cx="2.832" cy="2.832" r="2.832"/>
            <circle class="cls-22" cx="2.832" cy="2.832" r="2.332"/>
          </g>
          <g id="close" class="cls-16">
            <circle class="cls-52" cx="2.832" cy="2.832" r="2.832"/>
            <circle class="cls-22" cx="2.832" cy="2.832" r="2.332"/>
          </g>
        </g>
      </g>
    </g>
    <g id="Group_23" data-name="Group 23" transform="translate(961 4547)">
      <rect id="Rectangle_47-2" data-name="Rectangle 47" class="cls-17" width="657" height="377" transform="translate(2024 -3951)"/>
      <g class="cls-59" transform="matrix(1, 0, 0, 1, 1921, -3997.06)">
        <rect id="Rectangle_48-2" data-name="Rectangle 48" class="cls-18" width="657" height="29" transform="translate(102 21.06)"/>
      </g>
      <g id="Group_19-2" data-name="Group 19" transform="translate(70 -4631)">
        <g class="cls-58" transform="matrix(1, 0, 0, 1, 1851, 633.94)">
          <rect id="Rectangle_46-2" data-name="Rectangle 46" class="cls-19" width="632" height="271" transform="translate(45 152.06)"/>
        </g>
        <g id="Group_14" data-name="Group 14" transform="translate(843 304)">
          <g class="cls-57" transform="matrix(1, 0, 0, 1, 1008, 329.94)">
            <g id="Rectangle_5-2" data-name="Rectangle 5" class="cls-20" transform="translate(45 152.06)">
              <rect class="cls-52" width="632" height="271"/>
              <rect class="cls-22" x="0.25" y="0.25" width="631.5" height="270.5"/>
            </g>
          </g>
          <g id="Group_1" data-name="Group 1" transform="translate(-15 225)">
            <g id="Rectangle_11" data-name="Rectangle 11" class="cls-21" transform="translate(1068 284)">
              <rect class="cls-52" width="632" height="27"/>
              <rect class="cls-22" x="0.1" y="0.1" width="631.8" height="26.8"/>
            </g>
            <g id="checkbox" transform="translate(1081 287)">
              <path id="Path_1" data-name="Path 1" class="cls-22" d="M0,0H20V20H0Z"/>
              <path id="Path_2" data-name="Path 2" class="cls-23" d="M16.333,3H4.667A1.666,1.666,0,0,0,3,4.667V16.333A1.666,1.666,0,0,0,4.667,18H16.333A1.666,1.666,0,0,0,18,16.333V4.667A1.666,1.666,0,0,0,16.333,3Zm-7.5,11.667L4.667,10.5,5.842,9.325l2.992,2.983,6.325-6.325,1.175,1.183Z" transform="translate(-0.5 -0.5)"/>
            </g>
            <text id="_1" data-name="1" class="cls-24" transform="translate(1143 303)"><tspan x="0" y="0">1</tspan></text>
            <text id="MPZ" class="cls-25" transform="translate(1193 303)"><tspan x="0" y="0">MPZ</tspan></text>
            <g id="Ellipse_4" data-name="Ellipse 4" class="cls-26" transform="translate(1286.258 289)">
              <ellipse class="cls-52" cx="9.132" cy="8.832" rx="9.132" ry="8.832"/>
              <ellipse class="cls-22" cx="9.132" cy="8.832" rx="8.632" ry="8.332"/>
            </g>
            <text id="_1-2" data-name="1" class="cls-27" transform="translate(1292.069 301.409)"><tspan x="0" y="0">1</tspan></text>
            <g id="Rectangle_12" data-name="Rectangle 12" class="cls-28" transform="translate(1419 290)">
              <rect class="cls-52" width="167" height="15" rx="5"/>
              <rect class="cls-22" x="0.5" y="0.5" width="166" height="14" rx="4.5"/>
            </g>
            <g id="more_vert" data-name="more vert" transform="translate(1658 288)">
              <path id="Path_3" data-name="Path 3" class="cls-22" d="M0,0H20V20H0Z"/>
              <path id="Path_4" data-name="Path 4" class="cls-23" d="M11.667,7.333A1.667,1.667,0,1,0,10,5.667,1.672,1.672,0,0,0,11.667,7.333Zm0,1.667a1.667,1.667,0,1,0,1.667,1.667A1.672,1.672,0,0,0,11.667,9Zm0,5a1.667,1.667,0,1,0,1.667,1.667A1.672,1.672,0,0,0,11.667,14Z" transform="translate(-1.667 -0.667)"/>
            </g>
          </g>
          <g id="Group_2" data-name="Group 2" transform="translate(4 285)">
            <g id="Rectangle_13" data-name="Rectangle 13" class="cls-21" transform="translate(1049 251)">
              <rect class="cls-52" width="632" height="27"/>
              <rect class="cls-22" x="0.1" y="0.1" width="631.8" height="26.8"/>
            </g>
            <g id="checkbox-2" data-name="checkbox" transform="translate(1062 254)">
              <path id="Path_1-2" data-name="Path 1" class="cls-22" d="M0,0H20V20H0Z"/>
              <path id="Path_2-2" data-name="Path 2" class="cls-23" d="M16.333,3H4.667A1.666,1.666,0,0,0,3,4.667V16.333A1.666,1.666,0,0,0,4.667,18H16.333A1.666,1.666,0,0,0,18,16.333V4.667A1.666,1.666,0,0,0,16.333,3Zm-7.5,11.667L4.667,10.5,5.842,9.325l2.992,2.983,6.325-6.325,1.175,1.183Z" transform="translate(-0.5 -0.5)"/>
            </g>
            <text id="_2" data-name="2" class="cls-24" transform="translate(1124 270)"><tspan x="0" y="0">2</tspan></text>
            <text id="PMP22" class="cls-25" transform="translate(1174 270)"><tspan x="0" y="0">PMP22</tspan></text>
            <g id="svg_cricles" data-name="svg cricles" transform="translate(-56.742 220)">
              <g id="Ellipse_4-2" data-name="Ellipse 4" class="cls-26" transform="translate(1324 36)">
                <ellipse class="cls-52" cx="9.132" cy="8.832" rx="9.132" ry="8.832"/>
                <ellipse class="cls-22" cx="9.132" cy="8.832" rx="8.632" ry="8.332"/>
              </g>
              <text id="_1-3" data-name="1" class="cls-27" transform="translate(1329.811 48.409)"><tspan x="0" y="0">1</tspan></text>
            </g>
            <g id="Rectangle_14" data-name="Rectangle 14" class="cls-28" transform="translate(1400 257)">
              <rect class="cls-52" width="123" height="15" rx="5"/>
              <rect class="cls-22" x="0.5" y="0.5" width="122" height="14" rx="4.5"/>
            </g>
            <g id="more_vert-2" data-name="more vert" transform="translate(1639 255)">
              <path id="Path_3-2" data-name="Path 3" class="cls-22" d="M0,0H20V20H0Z"/>
              <path id="Path_4-2" data-name="Path 4" class="cls-23" d="M11.667,7.333A1.667,1.667,0,1,0,10,5.667,1.672,1.672,0,0,0,11.667,7.333Zm0,1.667a1.667,1.667,0,1,0,1.667,1.667A1.672,1.672,0,0,0,11.667,9Zm0,5a1.667,1.667,0,1,0,1.667,1.667A1.672,1.672,0,0,0,11.667,14Z" transform="translate(-1.667 -0.667)"/>
            </g>
            <g id="Rectangle_15" data-name="Rectangle 15" class="cls-29" transform="translate(1522 257)">
              <rect class="cls-52" width="45" height="15" rx="5"/>
              <rect class="cls-22" x="0.5" y="0.5" width="44" height="14" rx="4.5"/>
            </g>
          </g>
          <g id="Group_3" data-name="Group 3" transform="translate(4 312)">
            <g id="Rectangle_13-2" data-name="Rectangle 13" class="cls-21" transform="translate(1049 251)">
              <rect class="cls-52" width="632" height="27"/>
              <rect class="cls-22" x="0.1" y="0.1" width="631.8" height="26.8"/>
            </g>
            <g id="checkbox-3" data-name="checkbox" transform="translate(1062 254)">
              <path id="Path_1-3" data-name="Path 1" class="cls-22" d="M0,0H20V20H0Z"/>
              <path id="Path_2-3" data-name="Path 2" class="cls-23" d="M16.333,3H4.667A1.666,1.666,0,0,0,3,4.667V16.333A1.666,1.666,0,0,0,4.667,18H16.333A1.666,1.666,0,0,0,18,16.333V4.667A1.666,1.666,0,0,0,16.333,3Zm-7.5,11.667L4.667,10.5,5.842,9.325l2.992,2.983,6.325-6.325,1.175,1.183Z" transform="translate(-0.5 -0.5)"/>
            </g>
            <text id="_3" data-name="3" class="cls-24" transform="translate(1124 270)"><tspan x="0" y="0">3</tspan></text>
            <text id="NOG" class="cls-25" transform="translate(1174 270)"><tspan x="0" y="0">NOG</tspan></text>
            <g id="svg_cricles-2" data-name="svg cricles" transform="translate(-56.742 220)">
              <g id="Ellipse_4-3" data-name="Ellipse 4" class="cls-26" transform="translate(1324 36)">
                <ellipse class="cls-52" cx="9.132" cy="8.832" rx="9.132" ry="8.832"/>
                <ellipse class="cls-22" cx="9.132" cy="8.832" rx="8.632" ry="8.332"/>
              </g>
              <text id="_1-4" data-name="1" class="cls-27" transform="translate(1329.811 48.409)"><tspan x="0" y="0">1</tspan></text>
              <g id="Ellipse_5" data-name="Ellipse 5" class="cls-26" transform="translate(1351.395 36)">
                <ellipse class="cls-52" cx="9.132" cy="8.832" rx="9.132" ry="8.832"/>
                <ellipse class="cls-22" cx="9.132" cy="8.832" rx="8.632" ry="8.332"/>
              </g>
              <text id="_2-2" data-name="2" class="cls-27" transform="translate(1358.036 47.606)"><tspan x="0" y="0">2</tspan></text>
            </g>
            <g id="Rectangle_14-2" data-name="Rectangle 14" class="cls-28" transform="translate(1400 257)">
              <rect class="cls-52" width="123" height="15" rx="5"/>
              <rect class="cls-22" x="0.5" y="0.5" width="122" height="14" rx="4.5"/>
            </g>
            <g id="more_vert-3" data-name="more vert" transform="translate(1639 255)">
              <path id="Path_3-3" data-name="Path 3" class="cls-22" d="M0,0H20V20H0Z"/>
              <path id="Path_4-3" data-name="Path 4" class="cls-23" d="M11.667,7.333A1.667,1.667,0,1,0,10,5.667,1.672,1.672,0,0,0,11.667,7.333Zm0,1.667a1.667,1.667,0,1,0,1.667,1.667A1.672,1.672,0,0,0,11.667,9Zm0,5a1.667,1.667,0,1,0,1.667,1.667A1.672,1.672,0,0,0,11.667,14Z" transform="translate(-1.667 -0.667)"/>
            </g>
            <g id="Rectangle_15-2" data-name="Rectangle 15" class="cls-29" transform="translate(1522 257)">
              <rect class="cls-52" width="45" height="15" rx="5"/>
              <rect class="cls-22" x="0.5" y="0.5" width="44" height="14" rx="4.5"/>
            </g>
          </g>
          <g id="Group_4" data-name="Group 4" transform="translate(4 340)">
            <g id="Rectangle_16" data-name="Rectangle 16" class="cls-21" transform="translate(1049 250)">
              <rect class="cls-52" width="632" height="27"/>
              <rect class="cls-22" x="0.1" y="0.1" width="631.8" height="26.8"/>
            </g>
            <g id="checkbox-4" data-name="checkbox" transform="translate(1062 253)">
              <path id="Path_1-4" data-name="Path 1" class="cls-22" d="M0,0H20V20H0Z"/>
              <path id="Path_2-4" data-name="Path 2" class="cls-23" d="M16.333,3H4.667A1.666,1.666,0,0,0,3,4.667V16.333A1.666,1.666,0,0,0,4.667,18H16.333A1.666,1.666,0,0,0,18,16.333V4.667A1.666,1.666,0,0,0,16.333,3Zm-7.5,11.667L4.667,10.5,5.842,9.325l2.992,2.983,6.325-6.325,1.175,1.183Z" transform="translate(-0.5 -0.5)"/>
            </g>
            <text id="_4" data-name="4" class="cls-24" transform="translate(1124 269)"><tspan x="0" y="0">4</tspan></text>
            <text id="HSPG2" class="cls-25" transform="translate(1174 269)"><tspan x="0" y="0">HSPG2</tspan></text>
            <g id="svg_cricles-3" data-name="svg cricles" transform="translate(-56.742 219)">
              <g id="Ellipse_4-4" data-name="Ellipse 4" class="cls-26" transform="translate(1324 36)">
                <ellipse class="cls-52" cx="9.132" cy="8.832" rx="9.132" ry="8.832"/>
                <ellipse class="cls-22" cx="9.132" cy="8.832" rx="8.632" ry="8.332"/>
              </g>
              <text id="_2-3" data-name="2" class="cls-27" transform="translate(1329.811 48.409)"><tspan x="0" y="0">2</tspan></text>
            </g>
            <g id="Rectangle_17" data-name="Rectangle 17" class="cls-28" transform="translate(1400 256)">
              <rect class="cls-52" width="83" height="15" rx="5"/>
              <rect class="cls-22" x="0.5" y="0.5" width="82" height="14" rx="4.5"/>
            </g>
            <g id="more_vert-4" data-name="more vert" transform="translate(1639 254)">
              <path id="Path_3-4" data-name="Path 3" class="cls-22" d="M0,0H20V20H0Z"/>
              <path id="Path_4-4" data-name="Path 4" class="cls-23" d="M11.667,7.333A1.667,1.667,0,1,0,10,5.667,1.672,1.672,0,0,0,11.667,7.333Zm0,1.667a1.667,1.667,0,1,0,1.667,1.667A1.672,1.672,0,0,0,11.667,9Zm0,5a1.667,1.667,0,1,0,1.667,1.667A1.672,1.672,0,0,0,11.667,14Z" transform="translate(-1.667 -0.667)"/>
            </g>
            <g id="Rectangle_18" data-name="Rectangle 18" class="cls-29" transform="translate(1482 256)">
              <rect class="cls-52" width="85" height="15" rx="5"/>
              <rect class="cls-22" x="0.5" y="0.5" width="84" height="14" rx="4.5"/>
            </g>
          </g>
          <g id="Group_5" data-name="Group 5" transform="translate(7 378)">
            <g id="Rectangle_19" data-name="Rectangle 19" class="cls-21" transform="translate(1046 239)">
              <rect class="cls-52" width="632" height="27"/>
              <rect class="cls-22" x="0.1" y="0.1" width="631.8" height="26.8"/>
            </g>
            <g id="checkbox-5" data-name="checkbox" transform="translate(1059 242)">
              <path id="Path_1-5" data-name="Path 1" class="cls-22" d="M0,0H20V20H0Z"/>
              <path id="Path_2-5" data-name="Path 2" class="cls-23" d="M16.333,3H4.667A1.666,1.666,0,0,0,3,4.667V16.333A1.666,1.666,0,0,0,4.667,18H16.333A1.666,1.666,0,0,0,18,16.333V4.667A1.666,1.666,0,0,0,16.333,3Zm-7.5,11.667L4.667,10.5,5.842,9.325l2.992,2.983,6.325-6.325,1.175,1.183Z" transform="translate(-0.5 -0.5)"/>
            </g>
            <text id="_5" data-name="5" class="cls-24" transform="translate(1121 258)"><tspan x="0" y="0">5</tspan></text>
            <text id="TGFBR1" class="cls-25" transform="translate(1171 258)"><tspan x="0" y="0">TGFBR1</tspan></text>
            <g id="svg_cricles-4" data-name="svg cricles" transform="translate(-59.742 208)">
              <g id="Ellipse_4-5" data-name="Ellipse 4" class="cls-26" transform="translate(1324 36)">
                <ellipse class="cls-52" cx="9.132" cy="8.832" rx="9.132" ry="8.832"/>
                <ellipse class="cls-22" cx="9.132" cy="8.832" rx="8.632" ry="8.332"/>
              </g>
              <text id="_2-4" data-name="2" class="cls-27" transform="translate(1329.811 48.409)"><tspan x="0" y="0">2</tspan></text>
            </g>
            <g id="Rectangle_20" data-name="Rectangle 20" class="cls-28" transform="translate(1397 245)">
              <rect class="cls-52" width="62" height="15" rx="5"/>
              <rect class="cls-22" x="0.5" y="0.5" width="61" height="14" rx="4.5"/>
            </g>
            <g id="more_vert-5" data-name="more vert" transform="translate(1636 243)">
              <path id="Path_3-5" data-name="Path 3" class="cls-22" d="M0,0H20V20H0Z"/>
              <path id="Path_4-5" data-name="Path 4" class="cls-23" d="M11.667,7.333A1.667,1.667,0,1,0,10,5.667,1.672,1.672,0,0,0,11.667,7.333Zm0,1.667a1.667,1.667,0,1,0,1.667,1.667A1.672,1.672,0,0,0,11.667,9Zm0,5a1.667,1.667,0,1,0,1.667,1.667A1.672,1.672,0,0,0,11.667,14Z" transform="translate(-1.667 -0.667)"/>
            </g>
            <g id="Rectangle_21" data-name="Rectangle 21" class="cls-29" transform="translate(1458 245)">
              <rect class="cls-52" width="106" height="15" rx="5"/>
              <rect class="cls-22" x="0.5" y="0.5" width="105" height="14" rx="4.5"/>
            </g>
          </g>
          <g id="Group_6" data-name="Group 6" transform="translate(7 405)">
            <g id="Rectangle_19-2" data-name="Rectangle 19" class="cls-21" transform="translate(1046 239)">
              <rect class="cls-52" width="632" height="27"/>
              <rect class="cls-22" x="0.1" y="0.1" width="631.8" height="26.8"/>
            </g>
            <g id="checkbox-6" data-name="checkbox" transform="translate(1059 242)">
              <path id="Path_1-6" data-name="Path 1" class="cls-22" d="M0,0H20V20H0Z"/>
              <path id="Path_2-6" data-name="Path 2" class="cls-23" d="M16.333,3H4.667A1.666,1.666,0,0,0,3,4.667V16.333A1.666,1.666,0,0,0,4.667,18H16.333A1.666,1.666,0,0,0,18,16.333V4.667A1.666,1.666,0,0,0,16.333,3Zm-7.5,11.667L4.667,10.5,5.842,9.325l2.992,2.983,6.325-6.325,1.175,1.183Z" transform="translate(-0.5 -0.5)"/>
            </g>
            <text id="_6" data-name="6" class="cls-24" transform="translate(1121 258)"><tspan x="0" y="0">6</tspan></text>
            <text id="SMN1" class="cls-25" transform="translate(1171 258)"><tspan x="0" y="0">SMN1</tspan></text>
            <g id="svg_cricles-5" data-name="svg cricles" transform="translate(-59.742 208)">
              <g id="Ellipse_4-6" data-name="Ellipse 4" class="cls-26" transform="translate(1324 36)">
                <ellipse class="cls-52" cx="9.132" cy="8.832" rx="9.132" ry="8.832"/>
                <ellipse class="cls-22" cx="9.132" cy="8.832" rx="8.632" ry="8.332"/>
              </g>
              <text id="_1-5" data-name="1" class="cls-27" transform="translate(1329.811 48.409)"><tspan x="0" y="0">1</tspan></text>
            </g>
            <g id="Rectangle_20-2" data-name="Rectangle 20" class="cls-28" transform="translate(1397 245)">
              <rect class="cls-52" width="62" height="15" rx="5"/>
              <rect class="cls-22" x="0.5" y="0.5" width="61" height="14" rx="4.5"/>
            </g>
            <g id="more_vert-6" data-name="more vert" transform="translate(1636 243)">
              <path id="Path_3-6" data-name="Path 3" class="cls-22" d="M0,0H20V20H0Z"/>
              <path id="Path_4-6" data-name="Path 4" class="cls-23" d="M11.667,7.333A1.667,1.667,0,1,0,10,5.667,1.672,1.672,0,0,0,11.667,7.333Zm0,1.667a1.667,1.667,0,1,0,1.667,1.667A1.672,1.672,0,0,0,11.667,9Zm0,5a1.667,1.667,0,1,0,1.667,1.667A1.672,1.672,0,0,0,11.667,14Z" transform="translate(-1.667 -0.667)"/>
            </g>
            <g id="Rectangle_21-2" data-name="Rectangle 21" class="cls-29" transform="translate(1458 245)">
              <rect class="cls-52" width="106" height="15" rx="5"/>
              <rect class="cls-22" x="0.5" y="0.5" width="105" height="14" rx="4.5"/>
            </g>
          </g>
          <g id="Group_7" data-name="Group 7" transform="translate(4 427)">
            <g id="Rectangle_22" data-name="Rectangle 22" class="cls-21" transform="translate(1049 244)">
              <rect class="cls-52" width="632" height="27"/>
              <rect class="cls-22" x="0.1" y="0.1" width="631.8" height="26.8"/>
            </g>
            <g id="checkbox-7" data-name="checkbox" transform="translate(1062 247)">
              <path id="Path_1-7" data-name="Path 1" class="cls-22" d="M0,0H20V20H0Z"/>
              <path id="Path_2-7" data-name="Path 2" class="cls-23" d="M16.333,3H4.667A1.666,1.666,0,0,0,3,4.667V16.333A1.666,1.666,0,0,0,4.667,18H16.333A1.666,1.666,0,0,0,18,16.333V4.667A1.666,1.666,0,0,0,16.333,3Zm-7.5,11.667L4.667,10.5,5.842,9.325l2.992,2.983,6.325-6.325,1.175,1.183Z" transform="translate(-0.5 -0.5)"/>
            </g>
            <text id="_7" data-name="7" class="cls-24" transform="translate(1124 263)"><tspan x="0" y="0">7</tspan></text>
            <text id="NEFL" class="cls-25" transform="translate(1174 263)"><tspan x="0" y="0">NEFL</tspan></text>
            <g id="svg_cricles-6" data-name="svg cricles" transform="translate(-56.742 213)">
              <g id="Ellipse_4-7" data-name="Ellipse 4" class="cls-26" transform="translate(1324 36)">
                <ellipse class="cls-52" cx="9.132" cy="8.832" rx="9.132" ry="8.832"/>
                <ellipse class="cls-22" cx="9.132" cy="8.832" rx="8.632" ry="8.332"/>
              </g>
              <text id="_1-6" data-name="1" class="cls-27" transform="translate(1329.811 48.409)"><tspan x="0" y="0">1</tspan></text>
            </g>
            <g id="Rectangle_23" data-name="Rectangle 23" class="cls-28" transform="translate(1400 250)">
              <rect class="cls-52" width="48" height="15" rx="5"/>
              <rect class="cls-22" x="0.5" y="0.5" width="47" height="14" rx="4.5"/>
            </g>
            <g id="more_vert-7" data-name="more vert" transform="translate(1639 248)">
              <path id="Path_3-7" data-name="Path 3" class="cls-22" d="M0,0H20V20H0Z"/>
              <path id="Path_4-7" data-name="Path 4" class="cls-23" d="M11.667,7.333A1.667,1.667,0,1,0,10,5.667,1.672,1.672,0,0,0,11.667,7.333Zm0,1.667a1.667,1.667,0,1,0,1.667,1.667A1.672,1.672,0,0,0,11.667,9Zm0,5a1.667,1.667,0,1,0,1.667,1.667A1.672,1.672,0,0,0,11.667,14Z" transform="translate(-1.667 -0.667)"/>
            </g>
            <g id="Rectangle_24" data-name="Rectangle 24" class="cls-29" transform="translate(1446 250)">
              <rect class="cls-52" width="121" height="15" rx="5"/>
              <rect class="cls-22" x="0.5" y="0.5" width="120" height="14" rx="4.5"/>
            </g>
          </g>
          <g id="Group_8" data-name="Group 8" transform="translate(4 454)">
            <g id="Rectangle_22-2" data-name="Rectangle 22" class="cls-21" transform="translate(1049 244)">
              <rect class="cls-52" width="632" height="27"/>
              <rect class="cls-22" x="0.1" y="0.1" width="631.8" height="26.8"/>
            </g>
            <g id="checkbox-8" data-name="checkbox" transform="translate(1062 247)">
              <path id="Path_1-8" data-name="Path 1" class="cls-22" d="M0,0H20V20H0Z"/>
              <path id="Path_2-8" data-name="Path 2" class="cls-23" d="M16.333,3H4.667A1.666,1.666,0,0,0,3,4.667V16.333A1.666,1.666,0,0,0,4.667,18H16.333A1.666,1.666,0,0,0,18,16.333V4.667A1.666,1.666,0,0,0,16.333,3Zm-7.5,11.667L4.667,10.5,5.842,9.325l2.992,2.983,6.325-6.325,1.175,1.183Z" transform="translate(-0.5 -0.5)"/>
            </g>
            <text id="_8" data-name="8" class="cls-24" transform="translate(1124 263)"><tspan x="0" y="0">8</tspan></text>
            <text id="MYH3" class="cls-25" transform="translate(1174 263)"><tspan x="0" y="0">MYH3</tspan></text>
            <g id="svg_cricles-7" data-name="svg cricles" transform="translate(-56.742 213)">
              <g id="Ellipse_4-8" data-name="Ellipse 4" class="cls-26" transform="translate(1324 36)">
                <ellipse class="cls-52" cx="9.132" cy="8.832" rx="9.132" ry="8.832"/>
                <ellipse class="cls-22" cx="9.132" cy="8.832" rx="8.632" ry="8.332"/>
              </g>
              <text id="_2-5" data-name="2" class="cls-27" transform="translate(1329.811 48.409)"><tspan x="0" y="0">2</tspan></text>
            </g>
            <g id="Rectangle_23-2" data-name="Rectangle 23" class="cls-28" transform="translate(1400 250)">
              <rect class="cls-52" width="48" height="15" rx="5"/>
              <rect class="cls-22" x="0.5" y="0.5" width="47" height="14" rx="4.5"/>
            </g>
            <g id="more_vert-8" data-name="more vert" transform="translate(1639 248)">
              <path id="Path_3-8" data-name="Path 3" class="cls-22" d="M0,0H20V20H0Z"/>
              <path id="Path_4-8" data-name="Path 4" class="cls-23" d="M11.667,7.333A1.667,1.667,0,1,0,10,5.667,1.672,1.672,0,0,0,11.667,7.333Zm0,1.667a1.667,1.667,0,1,0,1.667,1.667A1.672,1.672,0,0,0,11.667,9Zm0,5a1.667,1.667,0,1,0,1.667,1.667A1.672,1.672,0,0,0,11.667,14Z" transform="translate(-1.667 -0.667)"/>
            </g>
            <g id="Rectangle_24-2" data-name="Rectangle 24" class="cls-29" transform="translate(1446 250)">
              <rect class="cls-52" width="121" height="15" rx="5"/>
              <rect class="cls-22" x="0.5" y="0.5" width="120" height="14" rx="4.5"/>
            </g>
          </g>
          <g id="Group_9" data-name="Group 9" transform="translate(4 481)">
            <g id="Rectangle_22-3" data-name="Rectangle 22" class="cls-21" transform="translate(1049 244)">
              <rect class="cls-52" width="632" height="27"/>
              <rect class="cls-22" x="0.1" y="0.1" width="631.8" height="26.8"/>
            </g>
            <g id="checkbox-9" data-name="checkbox" transform="translate(1062 247)">
              <path id="Path_1-9" data-name="Path 1" class="cls-22" d="M0,0H20V20H0Z"/>
              <path id="Path_2-9" data-name="Path 2" class="cls-23" d="M16.333,3H4.667A1.666,1.666,0,0,0,3,4.667V16.333A1.666,1.666,0,0,0,4.667,18H16.333A1.666,1.666,0,0,0,18,16.333V4.667A1.666,1.666,0,0,0,16.333,3Zm-7.5,11.667L4.667,10.5,5.842,9.325l2.992,2.983,6.325-6.325,1.175,1.183Z" transform="translate(-0.5 -0.5)"/>
            </g>
            <text id="_9" data-name="9" class="cls-24" transform="translate(1124 263)"><tspan x="0" y="0">9</tspan></text>
            <text id="WNT7A" class="cls-25" transform="translate(1174 263)"><tspan x="0" y="0">WNT7A</tspan></text>
            <g id="svg_cricles-8" data-name="svg cricles" transform="translate(-56.742 213)">
              <g id="Ellipse_4-9" data-name="Ellipse 4" class="cls-26" transform="translate(1324 36)">
                <ellipse class="cls-52" cx="9.132" cy="8.832" rx="9.132" ry="8.832"/>
                <ellipse class="cls-22" cx="9.132" cy="8.832" rx="8.632" ry="8.332"/>
              </g>
              <text id="_1-7" data-name="1" class="cls-27" transform="translate(1329.811 48.409)"><tspan x="0" y="0">1</tspan></text>
            </g>
            <g id="Rectangle_23-3" data-name="Rectangle 23" class="cls-28" transform="translate(1400 250)">
              <rect class="cls-52" width="36" height="15" rx="5"/>
              <rect class="cls-22" x="0.5" y="0.5" width="35" height="14" rx="4.5"/>
            </g>
            <g id="more_vert-9" data-name="more vert" transform="translate(1639 248)">
              <path id="Path_3-9" data-name="Path 3" class="cls-22" d="M0,0H20V20H0Z"/>
              <path id="Path_4-9" data-name="Path 4" class="cls-23" d="M11.667,7.333A1.667,1.667,0,1,0,10,5.667,1.672,1.672,0,0,0,11.667,7.333Zm0,1.667a1.667,1.667,0,1,0,1.667,1.667A1.672,1.672,0,0,0,11.667,9Zm0,5a1.667,1.667,0,1,0,1.667,1.667A1.672,1.672,0,0,0,11.667,14Z" transform="translate(-1.667 -0.667)"/>
            </g>
            <rect id="Rectangle_24-3" data-name="Rectangle 24" class="cls-30" width="133" height="15" rx="5" transform="translate(1434 250)"/>
          </g>
          <g id="Group_10" data-name="Group 10" transform="translate(4 250)">
            <g id="Rectangle_25" data-name="Rectangle 25" class="cls-31" transform="translate(1049 232)">
              <rect class="cls-52" width="632" height="27"/>
              <rect class="cls-22" x="0.15" y="0.15" width="631.7" height="26.7"/>
            </g>
            <g id="checkbox-10" data-name="checkbox" transform="translate(1062 235)">
              <path id="Path_1-10" data-name="Path 1" class="cls-22" d="M0,0H20V20H0Z"/>
              <path id="Path_2-10" data-name="Path 2" class="cls-23" d="M16.333,3H4.667A1.666,1.666,0,0,0,3,4.667V16.333A1.666,1.666,0,0,0,4.667,18H16.333A1.666,1.666,0,0,0,18,16.333V4.667A1.666,1.666,0,0,0,16.333,3Zm-7.5,11.667L4.667,10.5,5.842,9.325l2.992,2.983,6.325-6.325,1.175,1.183Z" transform="translate(-0.5 -0.5)"/>
            </g>
            <text id="Index" class="cls-32" transform="translate(1117 251)"><tspan x="0" y="0">Index</tspan></text>
            <text id="Gene" class="cls-32" transform="translate(1182 251)"><tspan x="0" y="0">Gene</tspan></text>
            <text id="Search_Terms" data-name="Search Terms" class="cls-32" transform="translate(1267 251)"><tspan x="0" y="0">Search Terms</tspan></text>
            <text id="Gene_Panels" data-name="Gene Panels" class="cls-32" transform="translate(1418 251)"><tspan x="0" y="0">Gene Panels</tspan></text>
            <text id="Links" class="cls-32" transform="translate(1634 251)"><tspan x="0" y="0">Links</tspan></text>
          </g>
        </g>
      </g>
      <g id="Group_20" data-name="Group 20" transform="translate(140 -4629)">
        <g class="cls-56" transform="matrix(1, 0, 0, 1, 1781, 631.94)">
          <g id="Rectangle_42-2" data-name="Rectangle 42" class="cls-31" transform="translate(115 46.06)">
            <rect class="cls-52" width="632" height="98"/>
            <rect class="cls-22" x="0.15" y="0.15" width="631.7" height="97.7"/>
          </g>
        </g>
        <text id="Enter_Phenotype_" data-name="Enter Phenotype
" class="cls-33" transform="translate(1916 698)"><tspan x="0" y="0">Enter Phenotype</tspan><tspan x="0" y="14"></tspan></text>
        <g id="Rectangle_44" data-name="Rectangle 44" class="cls-34" transform="translate(1916 706)">
          <rect class="cls-52" width="212" height="22" rx="4"/>
          <rect class="cls-22" x="0.5" y="0.5" width="211" height="21" rx="3.5"/>
        </g>
        <text id="Disorders_Searched:_" data-name="Disorders Searched: " class="cls-35" transform="translate(1916 758)"><tspan x="0" y="0">Disorders Searched: </tspan></text>
        <text id="Pes_Cavus" data-name="Pes Cavus" class="cls-36" transform="translate(1925 720)"><tspan x="0" y="0">Pes Cavus</tspan></text>
        <g id="button1" transform="translate(1634 546)">
          <g class="cls-55" transform="matrix(1, 0, 0, 1, 147, 85.94)">
            <rect id="Rectangle_32-3" data-name="Rectangle 32" class="cls-37" width="108" height="22" rx="2" transform="translate(353 74.06)"/>
          </g>
          <text id="Generate_Gene_List" data-name="Generate Gene List" class="cls-38" transform="translate(514 175)"><tspan x="0" y="0">Generate Gene List</tspan></text>
        </g>
        <g id="Rectangle_28" data-name="Rectangle 28" class="cls-39" transform="translate(2015 743.503)">
          <rect class="cls-52" width="129.52" height="20.497" rx="10.249"/>
          <rect class="cls-22" x="0.3" y="0.3" width="128.92" height="19.897" rx="9.949"/>
        </g>
        <text id="name" class="cls-40" transform="translate(2021.796 757.127)"><tspan x="0" y="0">1. Distal Muscle Weakness</tspan></text>
        <g id="ic_cancel_white" transform="translate(2128.396 749.453)">
          <path id="ic_cancel_white-2" data-name="ic_cancel_white" class="cls-41" d="M7-22a5.015,5.015,0,0,0-5,5,5.015,5.015,0,0,0,5,5,5.015,5.015,0,0,0,5-5,5.015,5.015,0,0,0-5-5Zm2.5,6.8-.7.7L7-16.3,5.2-14.5l-.7-.7L6.3-17,4.5-18.8l.7-.7L7-17.7l1.8-1.8.7.7L7.7-17l1.8,1.8Z" transform="translate(-2 22)"/>
        </g>
        <g id="Rectangle_33" data-name="Rectangle 33" class="cls-39" transform="translate(2154 743.503)">
          <rect class="cls-52" width="80.52" height="20.497" rx="10.249"/>
          <rect class="cls-22" x="0.3" y="0.3" width="79.92" height="19.897" rx="9.949"/>
        </g>
        <text id="name-2" data-name="name" class="cls-40" transform="translate(2164.796 757.127)"><tspan x="0" y="0">2. Pes Cavus</tspan></text>
        <g id="ic_cancel_white-3" data-name="ic_cancel_white" transform="translate(2217.396 749.453)">
          <path id="ic_cancel_white-4" data-name="ic_cancel_white" class="cls-41" d="M7-22a5.015,5.015,0,0,0-5,5,5.015,5.015,0,0,0,5,5,5.015,5.015,0,0,0,5-5,5.015,5.015,0,0,0-5-5Zm2.5,6.8-.7.7L7-16.3,5.2-14.5l-.7-.7L6.3-17,4.5-18.8l.7-.7L7-17.7l1.8-1.8.7.7L7.7-17l1.8,1.8Z" transform="translate(-2 22)"/>
        </g>
        <text id="Genes" class="cls-33" transform="translate(2406 697)"><tspan x="0" y="0">Genes</tspan></text>
        <g id="Rectangle_45" data-name="Rectangle 45" class="cls-34" transform="translate(2406 706)">
          <rect class="cls-52" width="58" height="22" rx="4"/>
          <rect class="cls-22" x="0.5" y="0.5" width="57" height="21" rx="3.5"/>
        </g>
        <g id="button1-2" data-name="button1" transform="translate(1970 546)">
          <g class="cls-54" transform="matrix(1, 0, 0, 1, -189, 85.94)">
            <rect id="Rectangle_32-4" data-name="Rectangle 32" class="cls-37" width="40.907" height="22" rx="2" transform="translate(689 74.06)"/>
          </g>
          <text id="Select" class="cls-42" transform="translate(509.936 175)"><tspan x="0" y="0">Select</tspan></text>
        </g>
        <text id="_50" data-name="50" class="cls-43" transform="translate(2414 721)"><tspan x="0" y="0">50</tspan></text>
      </g>
      <text id="Phenolyzer" class="cls-44" transform="translate(2036 -3957)"><tspan x="0" y="0">Phenolyzer</tspan></text>
      <g id="baseline-input-24px" transform="translate(2526 -3971)">
        <path id="Path_5" data-name="Path 5" class="cls-22" d="M0,0H20V20H0Z"/>
        <path id="Path_6" data-name="Path 6" class="cls-45" d="M12.818,3.01H2.182A1.338,1.338,0,0,0,1,4.456V7.341H2.182v-2.9H12.818V14.586H2.182V11.679H1v2.9A1.324,1.324,0,0,0,2.182,16.01H12.818A1.324,1.324,0,0,0,14,14.578V4.456A1.333,1.333,0,0,0,12.818,3.01ZM6.909,12.4,9.273,9.51,6.909,6.618V8.787H1v1.446H6.909Z" transform="translate(71.833 1.498)"/>
      </g>
      <text id="EXPORT" class="cls-46" transform="translate(2617 -3956)"><tspan x="0" y="0">EXPORT</tspan></text>
      <g id="Group_21" data-name="Group 21" transform="translate(10 -4514)">
        <g class="cls-53" transform="matrix(1, 0, 0, 1, 1911, 516.94)">
          <rect id="Rectangle_47-3" data-name="Rectangle 47" class="cls-19" width="246" height="88" transform="translate(686 161.06)"/>
        </g>
        <line id="Line_1" data-name="Line 1" class="cls-47" x2="212" transform="translate(2614.5 709.5)"/>
        <text id="GENES-2" data-name="GENES" class="cls-48" transform="translate(2700 699)"><tspan x="0" y="0">GENES</tspan></text>
        <text id="_50_of_300_genes_selected" data-name="50 of 300 genes selected" class="cls-49" transform="translate(2658 731)"><tspan x="0" y="0">50 </tspan><tspan class="cls-50" y="0">of 300 genes selected</tspan></text>
        <g id="Group_21-2" data-name="Group 21" transform="translate(1223 455)">
          <g id="Rectangle_26" data-name="Rectangle 26" class="cls-28" transform="translate(1392 287)">
            <rect class="cls-52" width="44.632" height="11" rx="5"/>
            <rect class="cls-22" x="0.5" y="0.5" width="43.632" height="10" rx="4.5"/>
          </g>
          <g id="Rectangle_27" data-name="Rectangle 27" class="cls-29" transform="translate(1435.702 287)">
            <rect class="cls-52" width="168.298" height="11" rx="5"/>
            <rect class="cls-22" x="0.5" y="0.5" width="167.298" height="10" rx="4.5"/>
          </g>
        </g>
        <line id="Line_2" data-name="Line 2" class="cls-51" x2="246" transform="translate(2597.5 763.5)"/>
      </g>
    </g>
  </g>
</svg>
