<svg id="Layer_1" data-name="Layer 1" xmlns="http://www.w3.org/2000/svg" viewBox="0 0 22 22"><defs><style>.cls-1,.cls-5{fill:#4867ad;}.cls-2,.cls-4{fill:#fff;}.cls-3{fill:none;stroke:#fff;}.cls-3,.cls-4{stroke-miterlimit:10;}.cls-4{stroke:#4867ad;}.cls-5{font-size:6.86px;font-family:Raleway-Bold, Raleway;font-weight:700;letter-spacing:-0.03em;}</style></defs><title>phenolyzer icon</title><rect class="cls-1" width="22" height="22"/><circle class="cls-2" cx="9.05" cy="10.81" r="3.6"/><circle class="cls-2" cx="4.74" cy="3.69" r="1.8"/><circle class="cls-2" cx="7.14" cy="18.36" r="1.8"/><line class="cls-3" x1="9.05" y1="10.81" x2="4.74" y2="3.69"/><line class="cls-3" x1="9.05" y1="10.81" x2="7.14" y2="18.36"/><circle class="cls-2" cx="17.15" cy="17.36" r="1.8"/><circle class="cls-2" cx="15.81" cy="3.69" r="1.8"/><line class="cls-3" x1="9.05" y1="10.81" x2="1.67" y2="9.81"/><path class="cls-2" d="M632.32,510.56a1.8,1.8,0,0,0-1.8-1.8,1.84,1.84,0,0,0-.53.09v3.43a1.84,1.84,0,0,0,.53.08A1.79,1.79,0,0,0,632.32,510.56Z" transform="translate(-629.1 -500.76)"/><rect class="cls-3" x="1.08" y="1.09" width="19.49" height="19.9"/><polygon class="cls-4" points="12.11 17.5 17.75 18.77 17.75 3.51 12.11 4.78 12.11 17.5"/><text class="cls-5" transform="translate(12.66 13.76)">P</text></svg>